<svg xmlns="http://www.w3.org/2000/svg" width="128" height="128" viewBox="0 0 24 24" fill="none">
  <rect width="24" height="24" rx="4" fill="#ffffff"/>
  <path d="M7.4 17.4c-2.2 0-3.9-1.5-3.9-3.7 0-2.1 1.7-3.7 3.9-3.7h2.4c1.1 0 2-.9 2-2V6.8c0-1.4 1.1-2.5 2.5-2.5h2.1c1.6 0 2.9 1.3 2.9 2.9 0 1.6-1.3 2.9-2.9 2.9h-1.1v2.1h1.5c2 0 3.5 1.4 3.5 3.4 0 2-1.5 3.4-3.5 3.4h-3.1c-1.7 0-3-1.2-3-2.9v-1.1H7.4Zm7.2-9.6h1c.7 0 1.3-.6 1.3-1.3 0-.7-.6-1.3-1.3-1.3h-1.1c-.6 0-1.1.5-1.1 1.1v2.5c.3-.6.8-1 1.2-1ZM8.2 15.2h2.6v1c0 .7.6 1.3 1.3 1.3h2.9c.8 0 1.5-.6 1.5-1.5 0-.8-.7-1.5-1.5-1.5h-4.5V12H7.4c-1.2 0-2.2.9-2.2 2.2 0 1.3 1 2.2 2.2 2.2Z" fill="#00CCBB"/>
</svg>